<svg width="30" height="33" viewBox="0 0 30 33" fill="none" xmlns="http://www.w3.org/2000/svg">
<path d="M2.29861 32.756C1.93753 32.756 1.59123 32.6126 1.3359 32.3572C1.08058 32.1019 0.937134 31.7556 0.937134 31.3945V1.44193C0.937241 1.20286 1.0003 0.968026 1.11996 0.761059C1.23963 0.554092 1.41168 0.382283 1.61882 0.262913C1.82596 0.143543 2.06087 0.0808215 2.29995 0.0810553C2.53902 0.0812892 2.77381 0.144471 2.98072 0.264246L28.8489 15.2405C29.0552 15.3602 29.2264 15.532 29.3455 15.7387C29.4645 15.9454 29.5272 16.1797 29.5272 16.4182C29.5272 16.6567 29.4645 16.8911 29.3455 17.0978C29.2264 17.3044 29.0552 17.4762 28.8489 17.5959L2.98072 32.5722C2.77353 32.6925 2.53821 32.7559 2.29861 32.756Z" fill="#B8D941"/>
</svg>
