<svg width="224" height="23" viewBox="0 0 224 23" fill="none" xmlns="http://www.w3.org/2000/svg">
<path fill-rule="evenodd" clip-rule="evenodd" d="M36.3276 20.4017C40.8759 20.4017 44.5629 16.8989 44.5629 12.5781C44.5629 8.25731 40.8759 4.7546 36.3276 4.7546C31.7794 4.7546 28.0923 8.25731 28.0923 12.5781C28.0923 16.8989 31.7794 20.4017 36.3276 20.4017ZM36.3276 22.0781C41.8505 22.0781 46.3276 17.8248 46.3276 12.5781C46.3276 7.33142 41.8505 3.07812 36.3276 3.07812C30.8048 3.07812 26.3276 7.33142 26.3276 12.5781C26.3276 17.8248 30.8048 22.0781 36.3276 22.0781Z" fill="#90D7EE"/>
<path d="M14.6768 14.8015C14.439 14.6744 13.2543 14.0706 13.0339 13.9889C12.8136 13.9027 12.6521 13.8618 12.4928 14.116C12.3314 14.368 11.8732 14.9287 11.7292 15.0989C11.5896 15.2669 11.4478 15.2873 11.2099 15.1625C9.79615 14.427 8.8689 13.8505 7.93728 12.1866C7.69074 11.744 8.18382 11.7758 8.64418 10.8202C8.72272 10.6522 8.68345 10.5092 8.62236 10.3821C8.56127 10.255 8.08128 9.02469 7.88055 8.52305C7.68638 8.03502 7.48565 8.10312 7.33947 8.09404C7.19984 8.08496 7.04057 8.08496 6.87912 8.08496C6.71767 8.08496 6.45803 8.14852 6.23767 8.39594C6.01731 8.64789 5.39551 9.25395 5.39551 10.4842C5.39551 11.7145 6.25731 12.9062 6.37513 13.0742C6.49731 13.2421 8.07037 15.7662 10.4856 16.8535C12.0128 17.539 12.6107 17.598 13.3743 17.48C13.839 17.4074 14.7968 16.8762 14.9953 16.2883C15.1939 15.7027 15.1939 15.201 15.135 15.0966C15.0761 14.9854 14.9146 14.9219 14.6768 14.8015Z" fill="#B8D941"/>
<path d="M19.4637 9.11782C18.9615 7.92057 18.2416 6.84593 17.3239 5.92291C16.4062 5.00212 15.3352 4.27752 14.1398 3.77588C12.9176 3.26085 11.62 3 10.2824 3H10.2379C8.89137 3.00669 7.58706 3.27423 6.36051 3.8004C5.17618 4.30873 4.11406 5.0311 3.20526 5.95189C2.29646 6.87269 1.5832 7.94286 1.08991 9.13566C0.57885 10.3708 0.321097 11.684 0.327763 13.0351C0.334429 14.5824 0.703282 16.1185 1.39433 17.4919V20.8808C1.39433 21.4471 1.85206 21.9064 2.41645 21.9064H5.79612C7.16488 22.5998 8.69584 22.9699 10.2379 22.9766H10.2846C11.6156 22.9766 12.9065 22.7179 14.122 22.2118C15.3108 21.7146 16.3795 21.0012 17.295 20.0893C18.2127 19.1774 18.9348 18.1117 19.4392 16.9234C19.9636 15.6927 20.2303 14.384 20.2369 13.0329C20.2436 11.6751 19.9814 10.3574 19.4637 9.11782ZM16.1062 18.8832C14.5486 20.4304 12.4821 21.2821 10.2824 21.2821H10.2446C8.90471 21.2754 7.57373 20.941 6.39828 20.3123L6.21163 20.2119H3.08305V17.0728L2.98306 16.8855C2.35645 15.7061 2.02315 14.3706 2.01649 13.0262C2.0076 10.8033 2.85418 8.71651 4.40737 7.14469C5.95833 5.57287 8.03146 4.70336 10.2468 4.69444H10.2846C11.3956 4.69444 12.4732 4.9107 13.4887 5.33877C14.4797 5.7557 15.3685 6.35544 16.1329 7.1224C16.895 7.88712 17.495 8.78116 17.9105 9.77553C18.3416 10.8056 18.5571 11.898 18.5527 13.0262C18.5393 15.2468 17.6705 17.3269 16.1062 18.8832Z" fill="#B8D941"/>
<path d="M33.6923 13.7052L31.6484 13.0289C31.2066 12.8857 31.2042 12.5627 31.7474 12.331L39.711 9.0669C40.1733 8.86724 40.4351 9.11986 40.2854 9.7527L38.9296 16.5412C38.8347 17.0248 38.5606 17.1402 38.1802 16.9171L36.0929 15.2782L35.1201 16.2747C35.0203 16.3772 34.9393 16.4649 34.7854 16.4866C34.6324 16.5091 34.5064 16.4605 34.414 16.1914L33.7021 13.6991L33.6923 13.706V13.7052Z" fill="#90D7EE"/>
</svg>
